<svg width="92" height="77" viewBox="0 0 92 77" fill="none" xmlns="http://www.w3.org/2000/svg">
<path d="M91.3773 33.9366C91.3773 33.9366 90.9373 44.9266 81.8973 46.0266C72.8573 47.1266 75.9673 45.5466 67.3373 47.1366C58.7073 48.7266 61.6073 41.3866 45.8273 40.5666C30.0473 39.7366 7.34728 50.7466 3.05728 44.1966C-1.23272 37.6466 -1.1727 36.9666 4.2873 31.8966C9.7473 26.8266 16.9973 30.8666 21.6173 19.3066C26.2373 7.74657 30.9273 17.7666 31.8173 18.0666C31.8173 18.0666 34.4573 16.6766 33.9173 12.0366C33.3773 7.39657 34.9373 -3.26343 44.6873 0.976572C54.4473 5.21657 48.1673 14.5766 48.1673 14.5766C48.1673 14.5766 51.7673 21.0666 55.5573 14.0266C59.3473 6.98657 95.2073 9.21657 91.3573 33.9366H91.3773Z" fill="#FFE682"/>
<path d="M85.5072 16.9266C83.3872 20.2166 82.9973 24.7066 83.8473 28.5466C84.7873 32.8266 86.9672 36.6466 89.9472 39.7766C91.2672 36.8266 91.3872 33.9466 91.3872 33.9466C92.5972 26.2066 89.8972 20.6666 85.5172 16.9366L85.5072 16.9266Z" fill="#E8C7AA"/>
<path d="M77.3173 17.9466C77.7873 16.1966 78.4373 14.6266 79.2073 13.1266C78.1973 12.7066 77.1673 12.3366 76.1273 12.0166C74.1273 16.6166 72.6873 21.4266 72.7373 26.3266C72.7873 30.5066 73.8273 34.5266 75.3273 38.4066C76.3773 41.1266 77.3573 44.0066 79.1773 46.2966C79.7273 46.2466 80.3274 46.1866 81.0274 46.1166C77.9174 41.3166 76.2473 35.5666 76.1373 29.8566C76.0573 25.9066 76.3073 21.7666 77.3273 17.9366L77.3173 17.9466Z" fill="#E8C7AA"/>
<path d="M65.2473 33.6666C67.0073 37.9666 69.1273 42.5966 71.7573 46.4666C71.8973 46.4566 72.0273 46.4366 72.1473 46.4266C72.0773 45.8966 71.9973 45.3666 71.9173 44.8366C67.7673 39.2066 65.3673 32.0866 65.5773 25.1466C65.7073 20.8966 66.2473 16.4266 67.7373 12.4166C67.9473 11.8366 68.1773 11.2366 68.4073 10.6366C68.2573 10.6266 68.0973 10.6166 67.9473 10.6066C66.5373 13.2666 65.2573 15.9866 64.5573 18.9366C63.3573 23.9666 63.2773 28.8266 65.2573 33.6666H65.2473Z" fill="#E8C7AA"/>
<path d="M57.1074 12.5066C56.4074 12.9466 55.8774 13.4566 55.5674 14.0366C55.4474 14.2566 55.3374 14.4566 55.2174 14.6566C54.1074 17.8266 53.4373 21.0066 53.5273 24.5666C53.7473 33.4666 57.9174 42.0066 65.0774 47.3566C65.2174 47.3566 65.3574 47.3566 65.5074 47.3566C62.9074 44.9366 61.0374 41.6566 59.4474 38.5666C57.2474 34.2966 55.7774 29.7266 55.4874 24.9066C55.2474 20.9766 55.6074 16.4266 57.1074 12.5266V12.5066Z" fill="#E8C7AA"/>
<path d="M49.5473 20.7066C49.7373 20.0966 50.2073 18.7066 50.8573 17.1066C50.4573 16.9566 50.0973 16.7166 49.7673 16.4466C49.3173 16.9466 48.8873 17.4666 48.4873 17.9966C47.9773 20.1766 47.8373 22.5466 47.6573 24.2166C47.0473 29.6766 46.9773 35.4566 50.0273 40.2566C50.1873 40.5066 50.2073 40.7666 50.1473 40.9966C51.3473 41.1866 52.3973 41.4366 53.3173 41.7066C51.2873 39.3066 49.6073 36.6966 48.9973 33.4566C48.2573 29.4866 48.3073 24.5666 49.5573 20.6966L49.5473 20.7066Z" fill="#E8C7AA"/>
<path d="M47.2673 15.9566C45.5473 17.6566 44.0473 19.5866 42.8173 21.7466C39.3773 27.7966 38.3473 34.3266 37.2573 41.0266C38.8773 40.8066 40.4673 40.6466 42.0173 40.5666C40.8773 32.5566 42.1573 23.4666 46.9673 16.9566C47.0573 16.6166 47.1573 16.2866 47.2673 15.9566Z" fill="#E8C7AA"/>
<path d="M48.2773 3.38657C47.4473 2.48657 46.2873 1.66657 44.6973 0.976573C41.1073 -0.583427 38.6373 -0.123427 36.9573 1.30657C40.6073 2.56657 44.3873 3.35657 48.2673 3.38657H48.2773Z" fill="#E8C7AA"/>
<path d="M34.4773 10.2666C38.4473 10.6866 42.5173 11.2066 46.3373 10.1766C46.4673 10.0766 46.5973 9.96657 46.7373 9.86657C47.2573 9.47657 47.8073 9.12657 48.3573 8.78657C47.3173 8.93657 46.2573 8.96657 45.2373 8.95657C42.5273 8.92657 39.7273 8.81657 37.0373 8.44657C35.9873 8.29657 34.9773 8.08657 33.9973 7.82657C33.8873 8.64657 33.8373 9.45657 33.8273 10.1966C34.0373 10.2166 34.2573 10.2366 34.4673 10.2566L34.4773 10.2666Z" fill="#E8C7AA"/>
<path d="M1.69724 34.4566C-0.98276 37.4166 -0.38275 38.9066 2.95725 44.0266C3.46725 40.6666 2.95724 37.4266 1.69724 34.4566Z" fill="#E8C7AA"/>
<path d="M7.76724 31.6666C10.0772 36.0466 11.7372 41.1366 11.2672 46.1366C11.5572 46.1066 11.8572 46.0766 12.1572 46.0366C12.3872 40.5566 9.64722 34.9366 7.21722 30.2166C7.18722 30.1566 7.14725 30.0966 7.11725 30.0366C7.04725 30.0666 6.97723 30.1066 6.90723 30.1466C7.20723 30.6566 7.49724 31.1666 7.76724 31.6766V31.6666Z" fill="#E8C7AA"/>
<path d="M16.1273 44.9666C16.7973 39.4566 16.2074 33.0766 13.8574 27.8066C12.6774 28.2666 11.4774 28.5766 10.2874 28.9166C13.5974 33.7566 15.8074 39.3766 16.1174 44.9666H16.1273Z" fill="#E8C7AA"/>
<path d="M17.7273 27.0566C20.8973 32.0366 23.5673 37.9066 22.9373 43.8966C23.2173 43.8366 23.4873 43.7666 23.7673 43.7066C24.0873 37.7766 22.0473 31.7766 18.7873 26.8566C18.4573 26.3666 18.1173 25.8766 17.7673 25.4066C17.5273 25.6266 17.2973 25.8366 17.0573 26.0266C17.2873 26.3666 17.5173 26.7166 17.7373 27.0666L17.7273 27.0566Z" fill="#E8C7AA"/>
<path d="M27.8873 42.7766C28.1073 42.7266 28.3173 42.6766 28.5373 42.6366C28.6773 33.7166 26.1773 25.3866 22.4573 17.4566C22.1773 18.0066 21.8973 18.6166 21.6273 19.3066C21.3873 19.8966 21.1473 20.4466 20.8973 20.9566C25.9673 26.9966 28.9273 34.5066 27.8873 42.7766Z" fill="#E8C7AA"/>
<path d="M49.5473 5.29657C49.5473 5.29657 49.5273 5.23657 49.5073 5.20657C44.7473 5.36657 40.1273 4.40657 35.6773 2.79657C35.3573 3.29657 35.0973 3.83657 34.8673 4.39657C39.6173 5.42657 44.7573 6.52657 49.5373 5.28657L49.5473 5.29657Z" fill="#E8C7AA"/>
<path d="M84.0773 15.8066C83.5273 15.4166 82.9573 15.0566 82.3773 14.7066C80.9973 17.6766 79.9273 20.7066 80.1873 24.1066C80.7073 30.8466 83.9173 37.2566 88.5173 42.1966C88.6973 41.9566 88.8674 41.7066 89.0274 41.4566C85.2374 37.6666 82.4473 32.7466 81.7973 27.4166C81.3073 23.3966 81.9273 19.0866 84.0773 15.8066Z" fill="#E8C7AA"/>
<path d="M34.5673 74.7666C34.5673 74.7666 24.7073 80.7666 19.2373 70.9766C13.7673 61.1766 18.3173 51.6266 28.7673 48.9166C39.2173 46.2066 42.0373 45.6866 48.6973 52.3466C55.3573 58.9966 52.2173 72.1366 34.5673 74.7666Z" fill="#E8C7AA"/>
<path d="M34.9274 74.0166C34.9274 74.0166 25.5374 79.7066 20.4274 70.5766C15.3174 61.4366 19.6974 52.4566 29.6174 49.8466C39.5374 47.2366 42.2173 46.7366 48.4773 52.9166C54.7473 59.1066 51.6774 71.4366 34.9274 74.0266V74.0166Z" fill="#FFE682"/>
<path d="M34.4774 70.2866C34.4774 70.2866 28.0874 74.1566 24.6174 67.9466C21.1374 61.7366 24.1174 55.6166 30.8674 53.8466C37.6174 52.0766 39.4374 51.7266 43.6974 55.9366C47.9574 60.1466 45.8674 68.5266 34.4774 70.2866Z" fill="#FFE682"/>
<path d="M38.8174 68.9666C38.8174 68.9666 27.2974 68.1566 28.5174 57.0066C29.7374 45.8566 38.9773 40.6966 49.0573 44.5366C59.1473 48.3766 61.7374 49.5866 63.3174 58.8666C64.8974 68.1466 54.7274 77.0466 38.8174 68.9666Z" fill="#E8C7AA"/>
<path d="M39.5474 68.5666C39.5474 68.5666 28.5974 67.7766 29.7174 57.3666C30.8374 46.9566 39.6174 42.1666 49.2174 45.7766C58.8174 49.3966 61.2874 50.5266 62.8174 59.1966C64.3474 67.8666 54.7074 76.1466 39.5474 68.5666Z" fill="#FFE682"/>
<path d="M41.3474 65.2666C41.3474 65.2666 33.8974 64.7266 34.6674 57.6466C35.4374 50.5666 41.3974 47.3066 47.9274 49.7666C54.4574 52.2266 56.1374 52.9966 57.1774 58.8966C58.2174 64.7966 51.6574 70.4266 41.3474 65.2666Z" fill="#FFE682"/>
<path d="M55.3674 75.3366C55.3674 75.3366 45.6974 78.4466 43.0374 68.9366C40.3874 59.4266 46.2474 52.1866 55.7374 52.0166C65.2374 51.8466 67.7474 51.9866 72.0774 59.0466C76.4074 66.1066 71.0074 76.7066 55.3674 75.3266V75.3366Z" fill="#E8C7AA"/>
<path d="M55.8273 74.7666C55.8273 74.7666 46.6173 77.7066 44.1373 68.8366C41.6473 59.9666 47.2473 53.1766 56.2773 52.9866C65.3073 52.7966 67.6973 52.9066 71.7773 59.4966C75.8573 66.0766 70.6973 75.9966 55.8373 74.7766L55.8273 74.7666Z" fill="#FFE682"/>
<path d="M56.2173 71.4866C56.2173 71.4866 49.9574 73.4866 48.2674 67.4566C46.5774 61.4266 50.3774 56.8066 56.5174 56.6766C62.6574 56.5466 64.2773 56.6266 67.0573 61.1066C69.8373 65.5866 66.3173 72.3266 56.2173 71.4966V71.4866Z" fill="#FFE682"/>
</svg>
