<svg width="24" height="21" viewBox="0 0 24 21" fill="none" xmlns="http://www.w3.org/2000/svg">
<path d="M23.5605 11.5594C24.1465 10.9734 24.1465 10.0219 23.5605 9.43594L17.5602 3.43594C16.9743 2.85 16.0227 2.85 15.4367 3.43594C14.8507 4.02188 14.8507 4.97344 15.4367 5.55938L18.8775 9H9.00044C8.17071 9 7.50037 9.67031 7.50037 10.5C7.50037 11.3297 8.17071 12 9.00044 12H18.8775L15.4367 15.4406C14.8507 16.0266 14.8507 16.9781 15.4367 17.5641C16.0227 18.15 16.9743 18.15 17.5602 17.5641L23.5605 11.5641V11.5594ZM7.50037 3C8.33009 3 9.00044 2.32969 9.00044 1.5C9.00044 0.670312 8.33009 0 7.50037 0H4.50022C2.01572 0 0 2.01562 0 4.5V16.5C0 18.9844 2.01572 21 4.50022 21H7.50037C8.33009 21 9.00044 20.3297 9.00044 19.5C9.00044 18.6703 8.33009 18 7.50037 18H4.50022C3.67049 18 3.00015 17.3297 3.00015 16.5V4.5C3.00015 3.67031 3.67049 3 4.50022 3H7.50037Z" fill="#1E1E1E"/>
</svg>
