<svg xmlns="http://www.w3.org/2000/svg" xmlns:xlink="http://www.w3.org/1999/xlink" width="100" zoomAndPan="magnify" viewBox="0 0 75 74.999997" height="100" preserveAspectRatio="xMidYMid meet" version="1.0"><defs><clipPath id="d5e56ff3e2"><path d="M 7.5 7.5 L 67.5 7.5 L 67.5 67.5 L 7.5 67.5 Z M 7.5 7.5 " clip-rule="nonzero"/></clipPath></defs><g clip-path="url(#d5e56ff3e2)"><path fill="#000000" d="M 37.5 7.5 C 36.515625 7.5 35.539062 7.546875 34.558594 7.644531 C 33.582031 7.742188 32.609375 7.882812 31.648438 8.078125 C 30.683594 8.269531 29.730469 8.507812 28.792969 8.792969 C 27.851562 9.078125 26.925781 9.40625 26.019531 9.785156 C 25.113281 10.160156 24.226562 10.578125 23.359375 11.042969 C 22.492188 11.503906 21.648438 12.011719 20.832031 12.554688 C 20.015625 13.101562 19.226562 13.6875 18.46875 14.308594 C 17.707031 14.933594 16.980469 15.59375 16.285156 16.285156 C 15.59375 16.980469 14.933594 17.707031 14.308594 18.46875 C 13.6875 19.226562 13.101562 20.015625 12.554688 20.832031 C 12.011719 21.648438 11.503906 22.492188 11.042969 23.359375 C 10.578125 24.226562 10.160156 25.113281 9.785156 26.019531 C 9.40625 26.925781 9.078125 27.851562 8.792969 28.792969 C 8.507812 29.730469 8.269531 30.683594 8.078125 31.648438 C 7.882812 32.609375 7.742188 33.582031 7.644531 34.558594 C 7.546875 35.539062 7.5 36.515625 7.5 37.5 C 7.5 38.484375 7.546875 39.460938 7.644531 40.441406 C 7.742188 41.417969 7.882812 42.390625 8.078125 43.351562 C 8.269531 44.316406 8.507812 45.269531 8.792969 46.207031 C 9.078125 47.148438 9.40625 48.074219 9.785156 48.980469 C 10.160156 49.886719 10.578125 50.773438 11.042969 51.640625 C 11.503906 52.507812 12.011719 53.351562 12.554688 54.167969 C 13.101562 54.984375 13.6875 55.773438 14.308594 56.53125 C 14.933594 57.292969 15.59375 58.019531 16.285156 58.714844 C 16.980469 59.40625 17.707031 60.066406 18.46875 60.691406 C 19.226562 61.3125 20.015625 61.898438 20.832031 62.445312 C 21.648438 62.988281 22.492188 63.496094 23.359375 63.957031 C 24.226562 64.421875 25.113281 64.839844 26.019531 65.214844 C 26.925781 65.59375 27.851562 65.921875 28.792969 66.207031 C 29.730469 66.492188 30.683594 66.730469 31.648438 66.921875 C 32.609375 67.113281 33.582031 67.257812 34.558594 67.355469 C 35.539062 67.453125 36.515625 67.5 37.5 67.5 C 38.484375 67.5 39.460938 67.453125 40.441406 67.355469 C 41.417969 67.257812 42.390625 67.113281 43.351562 66.921875 C 44.316406 66.730469 45.269531 66.492188 46.207031 66.207031 C 47.148438 65.921875 48.074219 65.59375 48.980469 65.214844 C 49.886719 64.839844 50.773438 64.421875 51.640625 63.957031 C 52.507812 63.496094 53.351562 62.988281 54.167969 62.445312 C 54.984375 61.898438 55.773438 61.3125 56.53125 60.691406 C 57.292969 60.066406 58.019531 59.40625 58.714844 58.714844 C 59.40625 58.019531 60.066406 57.292969 60.691406 56.53125 C 61.3125 55.773438 61.898438 54.984375 62.445312 54.167969 C 62.988281 53.351562 63.496094 52.507812 63.957031 51.640625 C 64.421875 50.773438 64.839844 49.886719 65.214844 48.980469 C 65.59375 48.074219 65.921875 47.148438 66.207031 46.207031 C 66.492188 45.269531 66.730469 44.316406 66.921875 43.351562 C 67.113281 42.390625 67.257812 41.417969 67.355469 40.441406 C 67.453125 39.460938 67.5 38.484375 67.5 37.5 C 67.5 36.515625 67.453125 35.539062 67.355469 34.558594 C 67.257812 33.582031 67.113281 32.609375 66.921875 31.648438 C 66.730469 30.683594 66.492188 29.730469 66.207031 28.792969 C 65.921875 27.851562 65.59375 26.925781 65.214844 26.019531 C 64.839844 25.113281 64.421875 24.226562 63.957031 23.359375 C 63.496094 22.492188 62.988281 21.648438 62.445312 20.832031 C 61.898438 20.015625 61.3125 19.226562 60.691406 18.46875 C 60.066406 17.707031 59.40625 16.980469 58.714844 16.285156 C 58.019531 15.59375 57.292969 14.933594 56.53125 14.308594 C 55.773438 13.6875 54.984375 13.101562 54.167969 12.554688 C 53.351562 12.011719 52.507812 11.503906 51.640625 11.042969 C 50.773438 10.578125 49.886719 10.160156 48.980469 9.785156 C 48.074219 9.40625 47.148438 9.078125 46.207031 8.792969 C 45.269531 8.507812 44.316406 8.269531 43.351562 8.078125 C 42.390625 7.882812 41.417969 7.742188 40.441406 7.644531 C 39.460938 7.546875 38.484375 7.5 37.5 7.5 Z M 55.976562 38.875 C 55.78125 39.339844 55.507812 39.746094 55.148438 40.101562 L 42.648438 52.601562 C 42.492188 52.824219 42.3125 53.03125 42.105469 53.214844 C 41.902344 53.402344 41.683594 53.5625 41.441406 53.699219 C 41.203125 53.835938 40.953125 53.945312 40.691406 54.027344 C 40.425781 54.109375 40.15625 54.160156 39.882812 54.183594 C 39.609375 54.203125 39.335938 54.195312 39.0625 54.15625 C 38.789062 54.121094 38.523438 54.050781 38.265625 53.957031 C 38.007812 53.859375 37.765625 53.734375 37.53125 53.585938 C 37.300781 53.433594 37.089844 53.261719 36.898438 53.0625 C 36.707031 52.867188 36.539062 52.652344 36.390625 52.417969 C 36.246094 52.183594 36.128906 51.933594 36.039062 51.675781 C 35.949219 51.414062 35.886719 51.148438 35.855469 50.875 C 35.824219 50.601562 35.824219 50.328125 35.851562 50.054688 C 35.878906 49.777344 35.9375 49.511719 36.027344 49.25 C 36.113281 48.988281 36.230469 48.742188 36.371094 48.503906 C 36.515625 48.269531 36.679688 48.050781 36.871094 47.851562 C 37.0625 47.652344 37.269531 47.476562 37.5 47.324219 L 43.574219 41.25 L 22.5 41.25 C 22.003906 41.25 21.523438 41.15625 21.066406 40.964844 C 20.605469 40.773438 20.199219 40.503906 19.847656 40.152344 C 19.496094 39.800781 19.226562 39.394531 19.035156 38.933594 C 18.84375 38.476562 18.75 37.996094 18.75 37.5 C 18.75 37.003906 18.84375 36.523438 19.035156 36.066406 C 19.226562 35.605469 19.496094 35.199219 19.847656 34.847656 C 20.199219 34.496094 20.605469 34.226562 21.066406 34.035156 C 21.523438 33.84375 22.003906 33.75 22.5 33.75 L 43.449219 33.75 L 37.5 27.675781 C 37.261719 27.523438 37.042969 27.347656 36.847656 27.148438 C 36.648438 26.949219 36.476562 26.730469 36.328125 26.492188 C 36.179688 26.253906 36.058594 26.003906 35.964844 25.738281 C 35.871094 25.472656 35.8125 25.199219 35.78125 24.921875 C 35.75 24.640625 35.75 24.363281 35.78125 24.082031 C 35.8125 23.804688 35.875 23.53125 35.96875 23.265625 C 36.0625 23 36.183594 22.75 36.332031 22.511719 C 36.484375 22.273438 36.65625 22.054688 36.855469 21.855469 C 37.054688 21.65625 37.273438 21.484375 37.511719 21.332031 C 37.75 21.183594 38 21.0625 38.265625 20.96875 C 38.53125 20.875 38.804688 20.8125 39.082031 20.78125 C 39.363281 20.75 39.640625 20.75 39.921875 20.78125 C 40.199219 20.8125 40.472656 20.871094 40.738281 20.964844 C 41.003906 21.058594 41.253906 21.179688 41.492188 21.328125 C 41.730469 21.476562 41.949219 21.648438 42.148438 21.847656 C 42.347656 22.042969 42.523438 22.261719 42.675781 22.5 L 55.175781 35 C 55.53125 35.351562 55.808594 35.761719 56 36.226562 C 56.335938 37.113281 56.328125 37.996094 55.976562 38.875 Z M 55.976562 38.875 " fill-opacity="1" fill-rule="nonzero"/></g></svg>