<svg width="212" height="48" viewBox="0 0 212 48" fill="none" xmlns="http://www.w3.org/2000/svg">
<path d="M66.2054 7.41931C65.8171 5.98514 65.0596 4.67767 64.0084 3.62713C62.9571 2.5766 61.6487 1.81966 60.2137 1.43172C54.9598 0 33.8166 0 33.8166 0C33.8166 0 12.6726 0.0434483 7.41955 1.47517C5.98454 1.86317 4.67628 2.62014 3.62509 3.67067C2.5739 4.7212 1.81646 6.02864 1.42822 7.46276C-0.16091 16.7917 -0.777434 31.0059 1.4717 39.9612C1.85994 41.3954 2.61737 42.7028 3.66857 43.7533C4.71976 44.8039 6.02801 45.5608 7.46303 45.9488C12.7165 47.3806 33.8601 47.3806 33.8601 47.3806C33.8601 47.3806 55.0036 47.3806 60.2571 45.9488C61.6921 45.5608 63.0004 44.8039 64.0516 43.7533C65.1028 42.7028 65.8602 41.3954 66.2485 39.9612C67.9241 30.6194 68.4409 16.4139 66.205 7.41972" fill="#FF0000"/>
<path d="M27.0872 33.8434L44.6272 23.6906L27.0872 13.5374V33.8434Z" fill="white"/>
<path d="M203.4 13.7544C205.701 13.7544 207.438 14.1881 208.653 15.0123C209.869 15.8369 210.737 17.1387 211.259 18.9177C211.779 20.6966 211.996 23.126 211.996 26.2501V31.327H200.839V32.8886L201.012 37.1842C201.142 38.1388 201.36 38.8332 201.707 39.2668C202.055 39.7009 202.619 39.9177 203.357 39.9177C204.355 39.9177 205.05 39.5275 205.397 38.7467C205.788 37.9654 205.962 36.6637 206.005 34.8848L211.779 35.2319C211.823 35.4922 211.823 35.8394 211.823 36.273C211.823 39.0066 211.085 41.0461 209.565 42.391C208.046 43.7358 205.962 44.4301 203.226 44.4301C199.927 44.4301 197.626 43.389 196.323 41.3499C195.021 39.3103 194.326 36.0992 194.326 31.8041V26.5539C194.474 19.178 195.772 13.7759 203.4 13.7544ZM123.124 14.3184V36.0562C123.124 37.358 123.254 38.3126 123.558 38.8766C124.174 40.0828 125.772 39.7745 126.64 39.1803C127.142 38.8416 127.546 38.378 127.813 37.8355V14.318H134.455V43.9526H129.245L128.681 40.3079H128.551C127.118 43.0414 124.99 44.4297 122.169 44.4297C117.825 44.419 116.762 41.2915 116.509 38.1152L116.493 37.8914C116.462 37.4103 116.443 36.9285 116.438 36.4464V14.3184H123.124ZM157.379 14.3184V36.0562C157.379 37.358 157.509 38.3126 157.813 38.8766C158.43 40.0828 160.028 39.7745 160.896 39.1803C161.397 38.8416 161.801 38.378 162.068 37.8355V14.318H168.711V43.9526H163.501L162.936 40.3079H162.806C161.374 43.0414 159.246 44.4297 156.424 44.4297C152.081 44.419 151.018 41.2915 150.765 38.1152L150.748 37.8914C150.717 37.4103 150.699 36.9285 150.693 36.4464V14.3184H157.379ZM103.847 13.7544C106.018 13.7544 107.798 14.1881 109.1 15.0992C110.403 16.0104 111.401 17.3991 112.009 19.3079C112.617 21.2172 112.921 23.7769 112.921 26.9445V31.2397C112.921 34.4072 112.617 36.9239 112.009 38.8328C111.401 40.7424 110.446 42.1307 109.1 43.0419C107.755 43.9096 105.931 44.3867 103.673 44.3867C101.329 44.4301 99.5051 43.953 98.1595 43.0853C96.8138 42.1741 95.8582 40.7854 95.2942 38.8766C94.7295 36.9674 94.469 34.4507 94.469 31.2835V26.9875C94.469 23.8199 94.7729 21.2168 95.4242 19.3075C96.0755 17.3552 97.0738 15.9666 98.4634 15.0992C99.8525 14.2311 101.633 13.754 103.847 13.754M179.131 1.86572V17.4856H179.174C179.782 16.3576 180.563 15.4464 181.649 14.7521C182.663 14.0712 183.857 13.7086 185.078 13.711C186.685 13.711 187.901 14.1446 188.812 14.9689C189.724 15.837 190.375 17.1819 190.766 19.0477C191.145 20.8551 191.36 23.3548 191.373 26.5071L191.374 26.8146V31.5003C191.374 35.8824 190.809 39.1369 189.767 41.2195C188.682 43.3021 187.032 44.3437 184.775 44.3437C183.516 44.3437 182.387 44.0399 181.345 43.4759C180.424 42.939 179.66 42.1696 179.13 41.2448L179.044 41.0892H178.914L178.219 43.9096H172.705V1.86614L179.131 1.86572ZM152.56 3.38434V8.76407H145.961V43.9526H139.448V8.76448H132.806V3.38476L152.56 3.38434ZM80.9664 3.38434L80.9705 3.4009C81.0339 3.68269 81.9116 7.58269 82.8772 12.1266L82.9534 12.4866L83.0685 13.0307L83.1455 13.3961L83.184 13.5794L83.261 13.9468L83.2996 14.131L83.3762 14.4997L83.4879 15.0388C84.1401 18.1853 84.7624 21.3409 85.1346 23.6035H85.3085C85.665 21.5739 86.183 18.9765 86.7354 16.3245L86.8803 15.6318C86.9529 15.2848 87.026 14.9383 87.0997 14.5923L87.2132 14.0557C87.9632 10.5412 88.7357 7.03165 89.5306 3.5271L89.543 3.47124L89.5629 3.38434H96.2055L88.5207 30.763V43.9096H81.9651V30.806H81.9216L74.3237 3.38393L80.9664 3.38434ZM103.716 18.3533C102.805 18.3533 102.197 18.8308 101.806 19.8289C101.416 20.827 101.242 22.3452 101.242 24.4717V33.7133C101.242 35.8828 101.416 37.4879 101.763 38.443C102.11 39.3974 102.762 39.8747 103.716 39.8747C104.628 39.8747 105.279 39.3974 105.67 38.443C106.061 37.4879 106.235 35.8828 106.235 33.7133V24.4712C106.235 22.3452 106.061 20.7831 105.67 19.8285C105.279 18.8308 104.628 18.3533 103.716 18.3533ZM180.303 19.2214C179.774 19.7097 179.397 20.3118 179.173 21.0645L179.131 21.2172V38.0519C179.669 38.9631 180.433 39.5705 181.779 39.614C182.473 39.614 183.038 39.3537 183.472 38.8332C183.906 38.3126 184.21 37.4448 184.384 36.2296C184.551 35.0635 184.637 33.4574 184.644 31.4114V27.2917C184.644 24.9488 184.557 23.1699 184.427 21.9115C184.253 20.6532 184.037 19.742 183.646 19.2214C182.89 18.1365 181.258 18.1497 180.303 19.2214ZM203.27 18.2234C202.532 18.2667 202.011 18.4837 201.707 18.8743C201.36 19.3079 201.142 19.9588 201.012 20.9134C200.884 21.8486 200.841 25.1176 200.839 25.2483V27.3786H205.701V25.4999V25.5359C205.698 26.1926 205.685 25.1548 205.655 23.8808L205.651 23.7094C205.623 22.5897 205.584 21.3413 205.528 20.9134C205.397 19.9154 205.18 19.221 204.833 18.8308C204.486 18.4402 203.965 18.2234 203.27 18.2234" fill="#282828"/>
</svg>
